<svg xmlns="http://www.w3.org/2000/svg" viewBox="0 0 720 620" fill="none">
  <defs>
    <linearGradient id="gold" x1="80" y1="100" x2="640" y2="520" gradientUnits="userSpaceOnUse">
      <stop stop-color="#E5C979"/>
      <stop offset="1" stop-color="#C99B35"/>
    </linearGradient>
    <linearGradient id="curve" x1="115" y1="510" x2="625" y2="125" gradientUnits="userSpaceOnUse">
      <stop stop-color="#6C6252"/>
      <stop offset=".55" stop-color="#C99B35"/>
      <stop offset="1" stop-color="#201D18"/>
    </linearGradient>
    <filter id="soft" x="-30%" y="-30%" width="160%" height="160%">
      <feGaussianBlur stdDeviation="8"/>
    </filter>
  </defs>
  <circle cx="390" cy="305" r="230" stroke="url(#gold)" stroke-opacity=".2"/>
  <path d="M89 375C149 239 290 172 449 202C562 223 644 309 670 404" stroke="#C99B35" stroke-opacity=".35" stroke-width="1.4"/>
  <path d="M52 427C134 252 309 160 498 208C603 235 674 308 700 364" stroke="#201D18" stroke-opacity=".18" stroke-width="1.2"/>
  <path d="M102 479C189 348 352 302 501 344C597 371 646 433 659 492" stroke="#C99B35" stroke-opacity=".28" stroke-width="1.3"/>
  <path d="M151 172C237 100 395 78 519 131C600 165 648 228 664 299" stroke="#C99B35" stroke-opacity=".23" stroke-width="1.1"/>
  <path d="M133 334C183 250 280 227 359 254C449 284 488 366 567 367C616 368 650 343 679 310" stroke="#201D18" stroke-opacity=".22" stroke-width="1.15"/>
  <path d="M124 504C191 472 224 430 276 392C333 351 388 359 439 314C488 272 513 204 602 139" stroke="url(#curve)" stroke-width="4" stroke-linecap="round"/>
  <path d="M584 139L606 137L597 158" stroke="#201D18" stroke-width="3" stroke-linecap="round" stroke-linejoin="round"/>
  <circle cx="124" cy="504" r="8" fill="#C99B35"/>
  <circle cx="276" cy="392" r="6" fill="#E5C979"/>
  <circle cx="439" cy="314" r="7" fill="#C99B35"/>
  <circle cx="602" cy="139" r="9" fill="#201D18"/>
  <circle cx="602" cy="139" r="20" stroke="#C99B35" stroke-opacity=".38" filter="url(#soft)"/>
  <g stroke="#201D18" stroke-opacity=".25">
    <path d="M102 527H616" stroke-width="1"/>
    <path d="M160 523V532M276 523V532M392 523V532M508 523V532M616 523V532" stroke-width="1"/>
  </g>
  <g fill="#201D18" fill-opacity=".48">
    <circle cx="143" cy="238" r="2.5"/>
    <circle cx="205" cy="155" r="2"/>
    <circle cx="482" cy="113" r="2.5"/>
    <circle cx="630" cy="246" r="2"/>
    <circle cx="577" cy="446" r="2.5"/>
  </g>
</svg>
